<?xml version="1.0" encoding="UTF-8"?>
<svg id="Layer_1" data-name="Layer 1" xmlns="http://www.w3.org/2000/svg" viewBox="0 0 512 512">
  <defs>
    <style>
      .cls-1 {
        fill: #464647;
        stroke: #464647;
        stroke-width: 20px;
      }

      .cls-1, .cls-2 {
        stroke-linecap: round;
        stroke-linejoin: round;
      }

      .cls-2 {
        fill: none;
        stroke: #464648;
        stroke-width: 30px;
      }
    </style>
  </defs>
  <g>
    <path class="cls-1" d="m282.78,313.68c-5.2-5.19-12.38-8.41-20.31-8.41H127.42c-2.46,0-4.55-1.81-4.91-4.25l-3.73-25.84-1.31-9.03-2.29-15.89-1.31-9.04-18.69-129.56c-2.18-15.71-16.67-26.68-32.38-24.51-14.24,1.97-24.82,14.16-24.78,28.54-.02,1.42.08,2.84.27,4.24l27.32,189.82v.02c0,.21.02.44.04.65l4.02,27.63c2.18,14.44,14.57,25.13,29.16,25.19h163.63c15.87-.03,28.72-12.91,28.72-28.77v-.49c0-7.93-3.22-15.11-8.41-20.3Zm-.63,20.76c0,10.88-8.8,19.71-19.68,19.73H98.84c-10.11-.07-18.67-7.48-20.18-17.47l-3.28-22.4-.03-.18h.02l-1.28-8.85-.9-6.2-26.14-180.43c-.02-.17-.04-.34-.06-.51-.06-.88-.06-1.77.02-2.64.26-10.88,9.28-19.47,20.15-19.22,9.45.22,17.4,7.14,18.95,16.46l18.89,130.57,1.55,10.67,1.47,10.18,1.54,10.63,3.32,22.96,1.09,7.52.36,3.48c.32,3.07,2.9,5.41,5.99,5.41h0s142.16.14,142.16.14c10.86.03,19.66,8.82,19.68,19.68v.46Z"/>
    <path class="cls-1" d="m73.2,299.07h0l.9,6.2-.89-6.2Zm2.18,15.05h-.02l.03.18h.02l-.03-.18Z"/>
    <polygon class="cls-1" points="74.1 305.27 73.2 299.07 73.2 299.07 74.1 305.27"/>
    <polygon class="cls-2" points="128.7 363.24 114.53 470.57 244.8 470.57 225.82 363.24 135.27 363.24 128.7 363.24"/>
  </g>
  <g>
    <path class="cls-2" d="m339.73,41.43v397.56c0,17.44,11.39,31.59,25.45,31.59,9.1,0,17.07-5.93,21.57-14.83,4.5,8.91,12.48,14.83,21.57,14.83,8.18,0,15.45-4.79,20.1-12.23,4.66,7.44,11.93,12.23,20.1,12.23,14.05,0,25.45-14.14,25.45-31.59V41.43h-134.25Z"/>
    <line class="cls-2" x1="429.6" y1="383.5" x2="429.6" y2="453.47"/>
    <line class="cls-2" x1="387.41" y1="383.5" x2="387.41" y2="453.47"/>
  </g>
</svg>