<?xml version="1.0" encoding="UTF-8"?>
<svg id="Layer_1" xmlns="http://www.w3.org/2000/svg" viewBox="0 0 512 512">
  <defs>
    <style>
      .cls-1 {
        fill: #464647;
      }
    </style>
  </defs>
  <path class="cls-1" d="M54.67,459.23c-15.66,0-28.4-12.74-28.4-28.4v-239.24c0-15.66,12.74-28.4,28.4-28.4h6.19v-63.61c.1-25.71,21.1-46.71,46.8-46.81h349.85c15.66.1,28.32,12.93,28.21,28.59v239.23c-.06,11.43-6.83,21.62-17.3,26.11v65.72c0,25.81-21,46.81-46.81,46.81H54.67ZM54.67,183.19c-4.63,0-8.4,3.77-8.4,8.4v239.24c0,4.63,3.77,8.4,8.4,8.4h366.96c.18,0,.36,0,.54,0,14.78-.3,26.56-12.56,26.26-27.34v-63.07H140.61s-.16,0-.16,0c-1.89.08-3.36,1.69-3.27,3.58,0,5.55-4.49,10.04-10,10.04s-10-4.49-10-10c0-13.02,10.6-23.62,23.62-23.62h316.53c4.63,0,8.4-3.77,8.4-8.4V81.17c0-4.63-3.77-8.4-8.4-8.4H107.67c-14.78,0-26.8,12.02-26.8,26.81v257.64c.1,14.68,12.12,26.71,26.81,26.8h279.9c12.92,0,23.52,10.51,23.62,23.43,0,5.52-4.49,10.01-10,10.01s-10-4.49-10-10v-.15c-.08-1.84-1.59-3.29-3.43-3.29H107.67c-25.51-.1-46.5-20.92-46.81-46.42v-174.41h-6.19Z"/>
</svg>