<?xml version="1.0" encoding="UTF-8"?>
<svg id="Capa_1" xmlns="http://www.w3.org/2000/svg" version="1.1" viewBox="0 0 340.7 512">
  <!-- Generator: Adobe Illustrator 29.1.0, SVG Export Plug-In . SVG Version: 2.1.0 Build 142)  -->
  <defs>
    <style>
      .st0 {
        fill: none;
        stroke: #464647;
        stroke-linecap: round;
        stroke-linejoin: round;
        stroke-width: 25.8px;
      }

      .st1 {
        fill: #464647;
      }

      .st2 {
        fill: #464648;
      }
    </style>
  </defs>
  <path class="st0" d="M327.6,85.7v344.5c0,38.6-31.7,69.8-70.8,69.8H84.4c-39.1,0-70.8-31.3-70.8-69.8v-66.3"/>
  <path class="st0" d="M13.6,372.8V83.8C13.6,44.7,45.3,13,84.4,13h172.4c39.1,0,70.8,31.7,70.8,70.8v12.6"/>
  <path class="st1" d="M174.7,466.2c10,0,18.2-8.1,18.2-18.2s-8.1-18.2-18.2-18.2-18.2,8.1-18.2,18.2,8.1,18.2,18.2,18.2Z"/>
  <path class="st2" d="M105.4,157c-6.1,0-11.2-5.4-11.2-12s5-12,11.2-12h130.5c6.1,0,11.2,5.4,11.2,12s-5,12-11.2,12H105.4Z"/>
  <path class="st2" d="M105.4,225c-6.1,0-11.2-5.4-11.2-12s5-12,11.2-12h130.5c6.1,0,11.2,5.4,11.2,12s-5,12-11.2,12H105.4Z"/>
  <path class="st2" d="M105.4,292.8c-6.1,0-11.2-5.4-11.2-12s5-12,11.2-12h130.5c6.1,0,11.2,5.4,11.2,12s-5,12-11.2,12H105.4Z"/>
</svg>