<?xml version="1.0" encoding="UTF-8"?>
<svg id="Layer_1" xmlns="http://www.w3.org/2000/svg" viewBox="0 0 512 512">
  <defs>
    <style>
      .cls-1 {
        fill: none;
        stroke: #464647;
        stroke-linecap: round;
        stroke-linejoin: round;
        stroke-width: 20px;
      }

      .cls-2 {
        fill: #464647;
      }
    </style>
  </defs>
  <path class="cls-1" d="M476.43,485.43c-15.01,15.99-35.67,15.98-35.67,15.98H73.58s-21.46-1.31-38.5-17.94c-16.71-16.31-16.71-52.85-16.71-52.85h474.91s1.51,35.24-16.86,54.81Z"/>
  <path class="cls-1" d="M398.37,273.39v-48.93c0-12.19-9.88-22.07-22.07-22.07H61.95c-12.19,0-22.07,9.88-22.07,22.07v48.93c0,114.2,85.4,155.77,85.4,155.77h187.75c91.78-53.15,85.34-155.77,85.34-155.77Z"/>
  <path class="cls-1" d="M332.83,268.78s4.49,61.13-34.56,101.75"/>
  <g>
    <path class="cls-2" d="M165.35,67.46c-1.56-13.78,5.37-20.72,5.66-21.01,1.56-1.53,1.62-4.04.11-5.62-.2-.21-.43-.4-.66-.56l-11.34-12.48c-.79-.87-1.87-1.31-2.96-1.31-.96,0-1.92.34-2.69,1.04-.69.63-16.85,15.65-13.77,42.85,1.32,11.67,6.44,19.57,10.55,25.92,4.65,7.18,7.72,11.91,6.92,22.1-.92,11.81-6.38,20.4-10.79,25.52-4.64,5.39-4.04,13.56,1.35,18.2,2.34,2.02,5.33,3.13,8.42,3.13,3.76,0,7.33-1.63,9.78-4.48,6.93-8.05,15.51-21.59,16.97-40.37,1.47-18.89-5.73-30.01-10.99-38.13-3.44-5.32-5.93-9.15-6.57-14.8Z"/>
    <path class="cls-2" d="M230.38,51.57c-1.56-13.78,5.37-20.72,5.66-21.01,1.57-1.53,1.62-4.04.11-5.63-.2-.21-.43-.4-.66-.56l-11.34-12.48c-.79-.87-1.87-1.31-2.96-1.31-.96,0-1.92.34-2.69,1.04-.69.63-16.85,15.66-13.77,42.85,1.32,11.67,6.44,19.57,10.55,25.92,4.65,7.18,7.72,11.91,6.92,22.1-.92,11.81-6.38,20.4-10.79,25.52-4.64,5.39-4.04,13.56,1.35,18.2,2.34,2.02,5.33,3.13,8.42,3.13,3.76,0,7.33-1.63,9.78-4.48,6.93-8.05,15.51-21.59,16.97-40.37,1.47-18.89-5.73-30.01-10.99-38.13-3.44-5.31-5.93-9.15-6.57-14.8Z"/>
    <path class="cls-2" d="M301.98,82.26c-3.44-5.32-5.93-9.15-6.57-14.8-1.56-13.78,5.37-20.72,5.66-21.01,1.56-1.53,1.62-4.04.11-5.62-.2-.21-.43-.4-.66-.56l-11.34-12.48c-.79-.87-1.87-1.31-2.96-1.31-.96,0-1.92.34-2.69,1.04-.69.63-16.85,15.65-13.77,42.85,1.32,11.67,6.44,19.57,10.55,25.92,4.65,7.18,7.72,11.91,6.92,22.1-.92,11.81-6.38,20.4-10.79,25.52-4.64,5.39-4.04,13.56,1.35,18.2,2.34,2.02,5.33,3.13,8.42,3.13,3.76,0,7.33-1.63,9.78-4.48,6.93-8.05,15.51-21.59,16.97-40.37,1.47-18.89-5.73-30.01-10.99-38.13Z"/>
  </g>
  <path class="cls-1" d="M411.4,247.16h63.31c10.45,0,18.92,8.47,18.92,18.92v39.76c0,27.76-22.51,50.27-50.27,50.27h-46.27"/>
</svg>