<svg width="65" height="65" viewBox="0 0 65 65" fill="none" xmlns="http://www.w3.org/2000/svg">
<path d="M32.5 2.54902C36.544 2.54902 40.467 3.34049 44.1579 4.90176C47.724 6.41078 50.9281 8.5698 53.6785 11.3215C56.4302 14.0731 58.5905 17.276 60.0982 20.8421C61.6595 24.533 62.451 28.4547 62.451 32.5C62.451 36.5453 61.6595 40.467 60.0982 44.1579C58.5892 47.724 56.4302 50.9281 53.6785 53.6785C50.9269 56.4302 47.724 58.5905 44.1579 60.0982C40.467 61.6595 36.5453 62.451 32.5 62.451C28.4547 62.451 24.533 61.6595 20.8421 60.0982C17.276 58.5892 14.0719 56.4302 11.3215 53.6785C8.57108 50.9269 6.40951 47.724 4.90176 44.1579C3.34049 40.467 2.54902 36.5453 2.54902 32.5C2.54902 28.4547 3.34049 24.533 4.90176 20.8421C6.41078 17.276 8.5698 14.0719 11.3215 11.3215C14.0731 8.57108 17.276 6.40951 20.8421 4.90176C24.533 3.34049 28.4547 2.54902 32.5 2.54902ZM32.5 0C14.5511 0 0 14.5511 0 32.5C0 50.4489 14.5511 65 32.5 65C50.4489 65 65 50.4489 65 32.5C65 14.5511 50.4489 0 32.5 0Z" fill="#464648"/>
<path d="M32.5001 20.3322C33.9684 20.3322 35.1587 19.1419 35.1587 17.6736C35.1587 16.2053 33.9684 15.015 32.5001 15.015C31.0318 15.015 29.8415 16.2053 29.8415 17.6736C29.8415 19.1419 31.0318 20.3322 32.5001 20.3322Z" fill="#464648"/>
<path d="M32.43 49.9849L32.5561 25.197" stroke="#464648" stroke-width="3.82353" stroke-linecap="round" stroke-linejoin="round"/>
</svg>
