<?xml version="1.0" encoding="UTF-8"?>
<svg id="Capa_1" data-name="Capa 1" xmlns="http://www.w3.org/2000/svg" viewBox="0 0 484.49 512">
  <defs>
    <style>
      .cls-1 {
        fill: #464648;
        stroke: #464647;
        stroke-width: 6px;
      }
    </style>
  </defs>
  <path class="cls-1" d="M355.1,274.52c-2.93,0-5.66-1.12-7.54-3.37-1.89-2.25-3.14-5.17-3.14-8.1s1.05-6.07,3.14-8.1l112.33-120.58c2.1-2.25,4.82-3.37,7.55-3.37s5.66,1.12,7.54,3.37,3.14,5.17,3.14,8.1-1.05,6.07-3.14,8.1l-112.34,120.58c-2.1,2.25-4.82,3.37-7.54,3.37Z"/>
  <path class="cls-1" d="M236.69,147.42c-2.93,0-5.66-1.12-7.54-3.37-2.1-2.25-3.14-5.17-3.14-8.1s1.05-6.07,3.14-8.1L341.48,7.04c2.1-2.25,4.82-3.37,7.55-3.37s5.66,1.12,7.54,3.37c4.19,4.5,4.19,11.92,0,16.42l-112.33,120.58c-2.1,2.25-4.82,3.37-7.55,3.37Z"/>
  <path class="cls-1" d="M426.99,358.66c-2.93,0-5.66-1.12-7.54-3.37L151.6,67.78c-2.1-2.25-3.14-5.17-3.14-8.1s1.05-6.07,3.14-8.1c2.1-2.02,4.82-3.37,7.54-3.37s5.66,1.12,7.55,3.37l267.84,287.5c4.19,4.5,4.19,11.92,0,16.42-2.1,2.25-4.82,3.37-7.54,3.37v-.22Z"/>
  <path class="cls-1" d="M193.51,464.38c-36.05,0-70-16.2-100.81-48.14-29.55-30.82-44.43-66.14-43.8-105.06,1.05-79.86,67.9-146.67,70.63-149.6l62.87-67.26c2.1-2.25,4.82-3.37,7.55-3.37s5.66,1.12,7.54,3.37c4.19,4.5,4.19,11.92,0,16.42l-62.87,67.49s-63.29,63.21-64.34,133.63c-.42,32.17,12.16,61.64,37.3,87.73,26.62,27.67,55.33,41.62,85.72,41.62h2.93c59.52-1.8,105-54.44,105.42-55.12l76.08-81.66c2.1-2.25,4.82-3.37,7.54-3.37s5.66,1.12,7.54,3.37c1.89,2.25,3.14,5.17,3.14,8.1s-1.05,6.07-3.14,8.1l-75.66,81.21c-5.45,6.3-54.7,60.29-120.51,62.31h-3.56l.42.22Z"/>
  <path class="cls-1" d="M17.05,508.47c-2.93,0-5.66-1.12-7.54-3.37-2.1-2.25-3.14-5.17-3.14-8.1s1.05-6.07,3.14-8.1l74.61-79.63c2.1-2.25,4.82-3.37,7.54-3.37s5.66,1.12,7.54,3.37c2.1,2.25,3.14,5.17,3.14,8.1s-1.05,6.07-3.14,8.1l-74.61,79.63c-2.1,2.25-4.82,3.37-7.54,3.37Z"/>
</svg>