<?xml version="1.0" encoding="UTF-8"?>
<svg id="Layer_1" data-name="Layer 1" xmlns="http://www.w3.org/2000/svg" viewBox="0 0 512 512">
  <defs>
    <style>
      .cls-1 {
        fill: none;
        stroke: #464648;
        stroke-linecap: round;
        stroke-linejoin: round;
        stroke-width: 20px;
      }
    </style>
  </defs>
  <line class="cls-1" x1="47.73" y1="41.9" x2="464.27" y2="41.9"/>
  <path class="cls-1" d="m339.03,41.9H85.33v400.69c0,15.19,12.32,27.51,27.51,27.51h29.55c15.19,0,27.51-12.32,27.51-27.51,0,15.19,12.32,27.51,27.51,27.51h29.55c15.19,0,27.51-12.32,27.51-27.51,0,15.19,12.32,27.51,27.51,27.51h29.55c15.19,0,27.51-12.32,27.51-27.51,0,15.19,12.32,27.51,27.51,27.51h29.55c15.19,0,27.51-12.32,27.51-27.51V41.9h-84.57Z"/>
  <line class="cls-1" x1="339.03" y1="442.59" x2="339.03" y2="387.3"/>
  <line class="cls-1" x1="254.46" y1="442.59" x2="254.46" y2="387.3"/>
  <line class="cls-1" x1="169.9" y1="442.59" x2="169.9" y2="387.3"/>
</svg>